<?xml version="1.0" encoding="utf-8"?>
<!-- Generator: Adobe Illustrator 24.0.3, SVG Export Plug-In . SVG Version: 6.00 Build 0)  -->
<svg version="1.1" id="Capa_1" xmlns="http://www.w3.org/2000/svg" xmlns:xlink="http://www.w3.org/1999/xlink" x="0px" y="0px"
	 width="85px" height="85px" viewBox="0 0 85 85" style="enable-background:new 0 0 85 85;" xml:space="preserve">
<style type="text/css">
	.st0{fill:#ED0079;}
	.st1{opacity:0.35;}
	.st2{fill:#FFFFFF;}
	.st3{fill:#BE0079;}
	.st4{clip-path:url(#SVGID_2_);enable-background:new    ;}
	.st5{fill:#D20079;}
	.st6{fill:#00ABFF;}
	.st7{fill:#0073FF;}
	.st8{clip-path:url(#SVGID_5_);enable-background:new    ;}
	.st9{fill:#0091FF;}
	.st10{clip-path:url(#SVGID_7_);enable-background:new    ;}
	.st11{clip-path:url(#SVGID_10_);enable-background:new    ;}
</style>
<g>
	<g>
		<g>
			<path class="st0" d="M233.591,166.595c24.556,0,44.47,19.72,44.47,44.037s-19.914,44.037-44.47,44.037
				s-44.462-19.72-44.462-44.037S209.035,166.595,233.591,166.595z"/>
		</g>
		<g class="st1">
			<path class="st2" d="M233.591,253.11c-24.292,0-44.02-19.301-44.442-43.257c-0.005,0.26-0.02,0.518-0.02,0.78
				c0,24.317,19.906,44.037,44.462,44.037s44.47-19.72,44.47-44.037c0-0.262-0.015-0.519-0.02-0.78
				C277.619,233.808,257.883,253.11,233.591,253.11z"/>
		</g>
		<g>
			<g>
				<path id="SVGID_3_" class="st3" d="M278.061,210.632v6.189c0,24.317-19.914,44.037-44.47,44.037s-44.462-19.72-44.462-44.037
					v-6.189c0,24.317,19.906,44.037,44.462,44.037S278.061,234.949,278.061,210.632z"/>
			</g>
			<g>
				<defs>
					<path id="SVGID_1_" d="M278.061,210.632v6.189c0,24.317-19.914,44.037-44.47,44.037s-44.462-19.72-44.462-44.037v-6.189
						c0,24.317,19.906,44.037,44.462,44.037S278.061,234.949,278.061,210.632z"/>
				</defs>
				<clipPath id="SVGID_2_">
					<use xlink:href="#SVGID_1_"  style="overflow:visible;"/>
				</clipPath>
				<g class="st4">
					<path class="st3" d="M278.061,210.632v6.189c0,2.86-0.275,5.656-0.801,8.364v-6.189
						C277.785,216.288,278.061,213.492,278.061,210.632"/>
					<path class="st3" d="M277.259,218.996v6.189c-0.571,2.941-1.438,5.779-2.569,8.481v-6.189
						C275.821,224.775,276.688,221.937,277.259,218.996"/>
					<path class="st3" d="M274.69,227.477v6.189c-1.271,3.036-2.875,5.902-4.767,8.551v-6.189
						C271.816,233.378,273.42,230.513,274.69,227.477"/>
					<path class="st3" d="M269.924,236.027v6.189c-8.054,11.278-21.326,18.642-36.333,18.642c-24.556,0-44.462-19.72-44.462-44.037
						v-6.189c0,24.317,19.906,44.037,44.462,44.037C248.597,254.669,261.87,247.305,269.924,236.027"/>
				</g>
			</g>
		</g>
		<g>
			<path class="st5" d="M233.591,243.997c-18.632,0-33.79-14.967-33.79-33.365c0-18.397,15.158-33.364,33.79-33.364
				c18.636,0,33.798,14.967,33.798,33.364C267.389,229.03,252.227,243.997,233.591,243.997z"/>
		</g>
		<path class="st3" d="M233.591,180.641c18.063,0,32.862,14.061,33.755,31.678c0.028-0.559,0.043-1.121,0.043-1.687
			c0-18.397-15.162-33.364-33.798-33.364c-18.632,0-33.79,14.967-33.79,33.364c0,0.566,0.015,1.128,0.043,1.687
			C200.737,194.703,215.532,180.641,233.591,180.641z"/>
	</g>
</g>
<g>
	<g>
		<g>
			<g>
				<path class="st6" d="M42.496,0C65.966,0,85,17.782,85,39.71s-19.034,39.71-42.504,39.71S0,61.637,0,39.71S19.026,0,42.496,0z"/>
			</g>
			<g class="st1">
				<path class="st2" d="M42.496,78.012c-23.218,0-42.074-17.404-42.477-39.006C0.014,39.241,0,39.473,0,39.71
					c0,21.927,19.026,39.71,42.496,39.71S85,61.637,85,39.71c0-0.236-0.014-0.468-0.019-0.703
					C84.578,60.608,65.714,78.012,42.496,78.012z"/>
			</g>
			<g>
				<g>
					<path id="SVGID_9_" class="st7" d="M85,39.71v5.581C85,67.218,65.966,85,42.496,85S0,67.217,0,45.29v-5.581
						c0,21.927,19.026,39.71,42.496,39.71S85,61.637,85,39.71z"/>
				</g>
				<g>
					<defs>
						<path id="SVGID_4_" d="M85,39.71v5.581C85,67.218,65.966,85,42.496,85S0,67.217,0,45.29v-5.581
							c0,21.927,19.026,39.71,42.496,39.71S85,61.637,85,39.71z"/>
					</defs>
					<clipPath id="SVGID_5_">
						<use xlink:href="#SVGID_4_"  style="overflow:visible;"/>
					</clipPath>
					<g class="st8">
						<path class="st7" d="M85,39.71v5.581c0,2.579-0.263,5.1-0.766,7.542v-5.581C84.736,44.809,85,42.288,85,39.71"/>
						<path class="st7" d="M84.234,47.251v5.581c-0.546,2.652-1.374,5.211-2.455,7.648v-5.581
							C82.859,52.462,83.688,49.904,84.234,47.251"/>
						<path class="st7" d="M81.778,54.898v5.581c-1.215,2.738-2.748,5.322-4.556,7.711v-5.581
							C79.031,60.22,80.564,57.636,81.778,54.898"/>
						<path class="st7" d="M77.223,62.609v5.581C69.525,78.36,56.84,85,42.496,85C19.026,85,0,67.218,0,45.29V39.71
							c0,21.927,19.026,39.71,42.496,39.71C56.839,79.419,69.525,72.778,77.223,62.609"/>
					</g>
				</g>
			</g>
			<g>
				<path class="st9" d="M42.496,69.796C24.688,69.796,10.2,56.3,10.2,39.71c0-16.589,14.488-30.085,32.296-30.085
					C60.308,9.624,74.8,23.12,74.8,39.71S60.308,69.796,42.496,69.796z"/>
			</g>
			<g>
				<path class="st7" d="M42.496,12.666c17.264,0,31.409,12.679,32.263,28.565c0.027-0.504,0.041-1.011,0.041-1.521
					c0-16.589-14.492-30.085-32.304-30.085C24.688,9.624,10.2,23.12,10.2,39.71c0,0.51,0.014,1.017,0.041,1.521
					C11.095,25.345,25.236,12.666,42.496,12.666z"/>
			</g>
		</g>
	</g>
</g>
<g>
	<g>
		<g>
			<g>
				<path class="st0" d="M336.657,270.698c23.47,0,42.504,17.198,42.504,38.414c0,21.222-19.034,38.421-42.504,38.421
					s-42.496-17.198-42.496-38.421C294.161,287.896,313.187,270.698,336.657,270.698z"/>
			</g>
			<g class="st1">
				<path class="st2" d="M336.657,345.877c-23.163,0-41.984-16.754-42.473-37.593c-0.007,0.276-0.023,0.55-0.023,0.828
					c0,21.222,19.026,38.421,42.496,38.421s42.504-17.198,42.504-38.421c0-0.277-0.016-0.551-0.023-0.828
					C378.648,329.123,359.82,345.877,336.657,345.877z"/>
			</g>
			<g>
				<path class="st5" d="M336.657,338.106c-17.808,0-32.296-13.007-32.296-28.995c0-15.984,14.488-28.987,32.296-28.987
					c17.812,0,32.303,13.004,32.303,28.987C368.961,325.099,354.469,338.106,336.657,338.106z"/>
			</g>
			<g>
				<g>
					<path id="SVGID_15_" class="st3" d="M379.161,309.111v8.166c0,21.222-19.034,38.421-42.504,38.421
						s-42.496-17.198-42.496-38.421v-8.166c0,21.222,19.026,38.421,42.496,38.421C360.127,347.533,379.161,330.334,379.161,309.111z
						"/>
				</g>
				<g>
					<defs>
						<path id="SVGID_6_" d="M379.161,309.111v8.166c0,21.222-19.034,38.421-42.504,38.421s-42.496-17.198-42.496-38.421v-8.166
							c0,21.222,19.026,38.421,42.496,38.421C360.127,347.533,379.161,330.334,379.161,309.111z"/>
					</defs>
					<clipPath id="SVGID_7_">
						<use xlink:href="#SVGID_6_"  style="overflow:visible;"/>
					</clipPath>
					<g class="st10">
						<path class="st3" d="M379.161,309.111v8.166c0,3.19-0.43,6.29-1.241,9.253v-8.166
							C378.731,315.401,379.161,312.301,379.161,309.111"/>
						<path class="st3" d="M377.92,318.364v8.166c-0.79,2.89-1.943,5.652-3.411,8.243v-8.166
							C375.977,324.016,377.13,321.255,377.92,318.364"/>
						<path class="st3" d="M374.508,326.607v8.166c-1.581,2.789-3.528,5.38-5.783,7.722v-8.166
							C370.98,331.987,372.927,329.396,374.508,326.607"/>
						<path class="st3" d="M368.724,334.329v8.166c-7.793,8.09-19.271,13.203-32.068,13.203c-23.47,0-42.496-17.198-42.496-38.421
							v-8.166c0,21.222,19.026,38.421,42.496,38.421C349.454,347.533,360.932,342.419,368.724,334.329"/>
					</g>
				</g>
			</g>
			<path class="st3" d="M336.657,284.674c16.958,0,30.896,11.789,32.194,26.712c0.065-0.752,0.109-1.51,0.109-2.276
				c0-15.984-14.492-28.987-32.303-28.987c-17.808,0-32.296,13.004-32.296,28.987c0,0.767,0.043,1.524,0.109,2.276
				C305.768,296.464,319.703,284.674,336.657,284.674z"/>
		</g>
	</g>
</g>
<g>
	<g>
		<g>
			<path class="st6" d="M95.196,294.273c23.47,0,42.504,17.198,42.504,38.413c0,21.222-19.033,38.42-42.504,38.42
				S52.7,353.908,52.7,332.686C52.701,311.471,71.726,294.273,95.196,294.273z"/>
		</g>
		<g class="st1">
			<path class="st2" d="M95.196,369.451c-23.163,0-41.984-16.754-42.473-37.593c-0.007,0.276-0.023,0.55-0.023,0.828
				c0,21.222,19.026,38.42,42.496,38.42c23.47,0,42.504-17.198,42.504-38.42c0-0.277-0.016-0.551-0.023-0.828
				C137.188,352.698,118.36,369.451,95.196,369.451z"/>
		</g>
		<g>
			<path class="st9" d="M95.197,361.681c-17.808,0-32.296-13.007-32.296-28.995c0-15.984,14.488-28.987,32.296-28.987
				c17.812,0,32.303,13.004,32.303,28.987C127.5,348.674,113.009,361.681,95.197,361.681z"/>
		</g>
		<g>
			<g>
				<path id="SVGID_21_" class="st7" d="M137.7,332.687v8.166c0,21.222-19.033,38.42-42.504,38.42S52.7,362.074,52.7,340.852v-8.166
					c0,21.222,19.026,38.42,42.496,38.42S137.7,353.909,137.7,332.687z"/>
			</g>
			<g>
				<defs>
					<path id="SVGID_8_" d="M137.7,332.687v8.166c0,21.222-19.033,38.42-42.504,38.42S52.7,362.074,52.7,340.852v-8.166
						c0,21.222,19.026,38.42,42.496,38.42S137.7,353.909,137.7,332.687z"/>
				</defs>
				<clipPath id="SVGID_10_">
					<use xlink:href="#SVGID_8_"  style="overflow:visible;"/>
				</clipPath>
				<g class="st11">
					<path class="st7" d="M137.7,332.687v8.166c0,3.19-0.43,6.29-1.241,9.253v-8.166C137.27,338.975,137.7,335.876,137.7,332.687"/>
					<path class="st7" d="M136.459,341.939v8.166c-0.79,2.89-1.943,5.652-3.411,8.243v-8.166
						C134.516,347.591,135.669,344.83,136.459,341.939"/>
					<path class="st7" d="M133.048,350.181v8.166c-1.581,2.789-3.528,5.38-5.783,7.721v-8.166
						C129.52,355.562,131.467,352.971,133.048,350.181"/>
					<path class="st7" d="M127.264,357.904v8.166c-7.792,8.09-19.27,13.203-32.067,13.203c-23.47,0-42.496-17.198-42.496-38.42
						v-8.166c0,21.222,19.026,38.42,42.496,38.42C107.994,371.107,119.471,365.993,127.264,357.904"/>
				</g>
			</g>
		</g>
		<path class="st7" d="M95.197,308.25c16.957,0,30.896,11.789,32.194,26.712c0.065-0.752,0.109-1.509,0.109-2.276
			c0-15.984-14.491-28.987-32.303-28.987c-17.808,0-32.296,13.004-32.296,28.987c0,0.767,0.044,1.524,0.109,2.276
			C64.308,320.039,78.242,308.25,95.197,308.25z"/>
	</g>
</g>
</svg>
