<?xml version="1.0" encoding="utf-8"?>
<!-- Generator: Adobe Illustrator 24.0.3, SVG Export Plug-In . SVG Version: 6.00 Build 0)  -->
<svg version="1.1" id="Capa_1" xmlns="http://www.w3.org/2000/svg" xmlns:xlink="http://www.w3.org/1999/xlink" x="0px" y="0px"
	 width="85px" height="85px" viewBox="0 0 85 85" style="enable-background:new 0 0 85 85;" xml:space="preserve">
<style type="text/css">
	.st0{fill:#ED0079;}
	.st1{opacity:0.35;}
	.st2{fill:#FFFFFF;}
	.st3{fill:#BE0079;}
	.st4{clip-path:url(#SVGID_2_);enable-background:new    ;}
	.st5{fill:#D20079;}
	.st6{fill:#00ABFF;}
	.st7{fill:#0073FF;}
	.st8{clip-path:url(#SVGID_5_);enable-background:new    ;}
	.st9{fill:#0091FF;}
	.st10{clip-path:url(#SVGID_7_);enable-background:new    ;}
	.st11{clip-path:url(#SVGID_10_);enable-background:new    ;}
</style>
<g>
	<g>
		<g>
			<path class="st0" d="M42.496,0C65.966,0,85,17.782,85,39.71s-19.034,39.71-42.504,39.71S0,61.637,0,39.71S19.026,0,42.496,0z"/>
		</g>
		<g class="st1">
			<path class="st2" d="M42.496,78.013c-23.218,0-42.074-17.404-42.477-39.006C0.014,39.242,0,39.474,0,39.711
				c0,21.927,19.026,39.71,42.496,39.71S85,61.638,85,39.711c0-0.236-0.014-0.468-0.019-0.703
				C84.578,60.608,65.714,78.013,42.496,78.013z"/>
		</g>
		<g>
			<g>
				<path id="SVGID_3_" class="st3" d="M85,39.71v5.581C85,67.218,65.966,85,42.496,85S0,67.218,0,45.29V39.71
					c0,21.927,19.026,39.71,42.496,39.71S85,61.637,85,39.71z"/>
			</g>
			<g>
				<defs>
					<path id="SVGID_1_" d="M85,39.71v5.581C85,67.218,65.966,85,42.496,85S0,67.218,0,45.29V39.71
						c0,21.927,19.026,39.71,42.496,39.71S85,61.637,85,39.71z"/>
				</defs>
				<clipPath id="SVGID_2_">
					<use xlink:href="#SVGID_1_"  style="overflow:visible;"/>
				</clipPath>
				<g class="st4">
					<path class="st3" d="M85,39.71v5.581c0,2.579-0.263,5.1-0.766,7.542v-5.581C84.736,44.81,85,42.289,85,39.71"/>
					<path class="st3" d="M84.233,47.252v5.581c-0.546,2.652-1.374,5.211-2.455,7.648v-5.581
						C82.859,52.463,83.688,49.904,84.233,47.252"/>
					<path class="st3" d="M81.778,54.899v5.581c-1.215,2.738-2.748,5.322-4.556,7.711V62.61
						C79.031,60.22,80.564,57.637,81.778,54.899"/>
					<path class="st3" d="M77.223,62.609v5.581C69.525,78.36,56.84,85,42.496,85C19.026,85,0,67.218,0,45.29V39.71
						c0,21.927,19.026,39.71,42.496,39.71C56.839,79.419,69.525,72.779,77.223,62.609"/>
				</g>
			</g>
		</g>
		<g>
			<path class="st5" d="M42.496,69.796C24.688,69.796,10.2,56.3,10.2,39.71c0-16.589,14.488-30.085,32.296-30.085
				C60.308,9.624,74.8,23.12,74.8,39.71C74.8,56.3,60.308,69.796,42.496,69.796z"/>
		</g>
		<path class="st3" d="M42.496,12.666c17.264,0,31.409,12.679,32.263,28.565c0.027-0.504,0.041-1.011,0.041-1.521
			c0-16.589-14.492-30.085-32.304-30.085C24.688,9.624,10.2,23.12,10.2,39.71c0,0.51,0.014,1.017,0.041,1.521
			C11.095,25.346,25.236,12.666,42.496,12.666z"/>
	</g>
</g>
<g>
	<g>
		<g>
			<g>
				<path class="st6" d="M106.572,144.171c23.47,0,42.504,17.782,42.504,39.71s-19.034,39.71-42.504,39.71
					s-42.496-17.782-42.496-39.71S83.102,144.171,106.572,144.171z"/>
			</g>
			<g class="st1">
				<path class="st2" d="M106.572,222.184c-23.218,0-42.074-17.404-42.477-39.006c-0.005,0.234-0.019,0.467-0.019,0.703
					c0,21.927,19.026,39.71,42.496,39.71s42.504-17.782,42.504-39.71c0-0.236-0.014-0.468-0.019-0.703
					C148.654,204.779,129.79,222.184,106.572,222.184z"/>
			</g>
			<g>
				<g>
					<path id="SVGID_9_" class="st7" d="M149.076,183.881v5.581c0,21.927-19.034,39.71-42.504,39.71s-42.496-17.783-42.496-39.71
						v-5.581c0,21.927,19.026,39.71,42.496,39.71S149.076,205.808,149.076,183.881z"/>
				</g>
				<g>
					<defs>
						<path id="SVGID_4_" d="M149.076,183.881v5.581c0,21.927-19.034,39.71-42.504,39.71s-42.496-17.783-42.496-39.71v-5.581
							c0,21.927,19.026,39.71,42.496,39.71S149.076,205.808,149.076,183.881z"/>
					</defs>
					<clipPath id="SVGID_5_">
						<use xlink:href="#SVGID_4_"  style="overflow:visible;"/>
					</clipPath>
					<g class="st8">
						<path class="st7" d="M149.076,183.881v5.581c0,2.579-0.263,5.1-0.766,7.542v-5.581
							C148.812,188.98,149.076,186.459,149.076,183.881"/>
						<path class="st7" d="M148.31,191.422v5.581c-0.546,2.652-1.374,5.211-2.455,7.648v-5.581
							C146.935,196.633,147.764,194.075,148.31,191.422"/>
						<path class="st7" d="M145.854,199.069v5.581c-1.215,2.738-2.748,5.322-4.556,7.711v-5.581
							C143.107,204.391,144.64,201.807,145.854,199.069"/>
						<path class="st7" d="M141.299,206.78v5.581c-7.698,10.17-20.383,16.81-34.727,16.81c-23.47,0-42.496-17.782-42.496-39.71
							v-5.581c0,21.927,19.026,39.71,42.496,39.71C120.915,223.59,133.601,216.949,141.299,206.78"/>
					</g>
				</g>
			</g>
			<g>
				<path class="st9" d="M106.572,213.967c-17.808,0-32.296-13.496-32.296-30.086c0-16.589,14.488-30.085,32.296-30.085
					c17.812,0,32.304,13.496,32.304,30.085S124.384,213.967,106.572,213.967z"/>
			</g>
			<g>
				<path class="st7" d="M106.572,156.837c17.264,0,31.409,12.679,32.263,28.565c0.027-0.504,0.041-1.011,0.041-1.521
					c0-16.589-14.492-30.085-32.304-30.085c-17.808,0-32.296,13.496-32.296,30.085c0,0.51,0.014,1.017,0.041,1.521
					C75.171,169.516,89.312,156.837,106.572,156.837z"/>
			</g>
		</g>
	</g>
</g>
<g>
	<g>
		<g>
			<g>
				<path class="st0" d="M254.004,254.691c23.47,0,42.504,17.198,42.504,38.414c0,21.222-19.034,38.421-42.504,38.421
					s-42.496-17.198-42.496-38.421C211.508,271.889,230.534,254.691,254.004,254.691z"/>
			</g>
			<g class="st1">
				<path class="st2" d="M254.004,329.87c-23.163,0-41.984-16.754-42.473-37.593c-0.007,0.276-0.023,0.55-0.023,0.828
					c0,21.222,19.026,38.421,42.496,38.421s42.504-17.198,42.504-38.421c0-0.277-0.016-0.551-0.023-0.828
					C295.996,313.117,277.168,329.87,254.004,329.87z"/>
			</g>
			<g>
				<path class="st5" d="M254.004,322.099c-17.808,0-32.296-13.007-32.296-28.995c0-15.984,14.488-28.987,32.296-28.987
					c17.812,0,32.303,13.004,32.303,28.987C286.308,309.092,271.816,322.099,254.004,322.099z"/>
			</g>
			<g>
				<g>
					<path id="SVGID_15_" class="st3" d="M296.508,293.104v8.166c0,21.222-19.034,38.421-42.504,38.421
						s-42.496-17.198-42.496-38.421v-8.166c0,21.222,19.026,38.421,42.496,38.421C277.475,331.526,296.508,314.327,296.508,293.104z
						"/>
				</g>
				<g>
					<defs>
						<path id="SVGID_6_" d="M296.508,293.104v8.166c0,21.222-19.034,38.421-42.504,38.421s-42.496-17.198-42.496-38.421v-8.166
							c0,21.222,19.026,38.421,42.496,38.421C277.475,331.526,296.508,314.327,296.508,293.104z"/>
					</defs>
					<clipPath id="SVGID_7_">
						<use xlink:href="#SVGID_6_"  style="overflow:visible;"/>
					</clipPath>
					<g class="st10">
						<path class="st3" d="M296.508,293.104v8.166c0,3.19-0.43,6.29-1.241,9.253v-8.166
							C296.078,299.394,296.508,296.295,296.508,293.104"/>
						<path class="st3" d="M295.268,302.357v8.166c-0.79,2.89-1.943,5.652-3.411,8.243V310.6
							C293.325,308.009,294.477,305.248,295.268,302.357"/>
						<path class="st3" d="M291.855,310.6v8.166c-1.581,2.789-3.528,5.38-5.783,7.722v-8.166
							C288.328,315.98,290.275,313.389,291.855,310.6"/>
						<path class="st3" d="M286.072,318.323v8.166c-7.793,8.09-19.271,13.203-32.068,13.203c-23.47,0-42.496-17.198-42.496-38.421
							v-8.166c0,21.222,19.026,38.421,42.496,38.421C266.801,331.526,278.28,326.412,286.072,318.323"/>
					</g>
				</g>
			</g>
			<path class="st3" d="M254.004,268.668c16.958,0,30.896,11.789,32.194,26.712c0.065-0.752,0.109-1.51,0.109-2.276
				c0-15.984-14.492-28.987-32.303-28.987c-17.808,0-32.296,13.004-32.296,28.987c0,0.767,0.043,1.524,0.109,2.276
				C223.115,280.458,237.051,268.668,254.004,268.668z"/>
		</g>
	</g>
</g>
<g>
	<g>
		<g>
			<path class="st6" d="M95.196,294.273c23.47,0,42.504,17.198,42.504,38.413c0,21.222-19.033,38.42-42.504,38.42
				S52.7,353.908,52.7,332.686C52.701,311.471,71.726,294.273,95.196,294.273z"/>
		</g>
		<g class="st1">
			<path class="st2" d="M95.196,369.451c-23.163,0-41.984-16.754-42.473-37.593c-0.007,0.276-0.023,0.55-0.023,0.828
				c0,21.222,19.026,38.42,42.496,38.42c23.47,0,42.504-17.198,42.504-38.42c0-0.277-0.016-0.551-0.023-0.828
				C137.188,352.698,118.36,369.451,95.196,369.451z"/>
		</g>
		<g>
			<path class="st9" d="M95.197,361.681c-17.808,0-32.296-13.007-32.296-28.995c0-15.984,14.488-28.987,32.296-28.987
				c17.812,0,32.303,13.004,32.303,28.987C127.5,348.674,113.009,361.681,95.197,361.681z"/>
		</g>
		<g>
			<g>
				<path id="SVGID_21_" class="st7" d="M137.7,332.687v8.166c0,21.222-19.033,38.42-42.504,38.42S52.7,362.074,52.7,340.852v-8.166
					c0,21.222,19.026,38.42,42.496,38.42S137.7,353.909,137.7,332.687z"/>
			</g>
			<g>
				<defs>
					<path id="SVGID_8_" d="M137.7,332.687v8.166c0,21.222-19.033,38.42-42.504,38.42S52.7,362.074,52.7,340.852v-8.166
						c0,21.222,19.026,38.42,42.496,38.42S137.7,353.909,137.7,332.687z"/>
				</defs>
				<clipPath id="SVGID_10_">
					<use xlink:href="#SVGID_8_"  style="overflow:visible;"/>
				</clipPath>
				<g class="st11">
					<path class="st7" d="M137.7,332.687v8.166c0,3.19-0.43,6.29-1.241,9.253v-8.166C137.27,338.975,137.7,335.876,137.7,332.687"/>
					<path class="st7" d="M136.459,341.939v8.166c-0.79,2.89-1.943,5.652-3.411,8.243v-8.166
						C134.516,347.591,135.669,344.83,136.459,341.939"/>
					<path class="st7" d="M133.048,350.181v8.166c-1.581,2.789-3.528,5.38-5.783,7.721v-8.166
						C129.52,355.562,131.467,352.971,133.048,350.181"/>
					<path class="st7" d="M127.264,357.904v8.166c-7.792,8.09-19.27,13.203-32.067,13.203c-23.47,0-42.496-17.198-42.496-38.42
						v-8.166c0,21.222,19.026,38.42,42.496,38.42C107.994,371.107,119.471,365.993,127.264,357.904"/>
				</g>
			</g>
		</g>
		<path class="st7" d="M95.197,308.25c16.957,0,30.896,11.789,32.194,26.712c0.065-0.752,0.109-1.509,0.109-2.276
			c0-15.984-14.491-28.987-32.303-28.987c-17.808,0-32.296,13.004-32.296,28.987c0,0.767,0.044,1.524,0.109,2.276
			C64.308,320.039,78.242,308.25,95.197,308.25z"/>
	</g>
</g>
</svg>
